<?xml version="1.0" encoding="UTF-8"?>
<svg id="Layer_1" xmlns="http://www.w3.org/2000/svg" version="1.1" viewBox="0 0 1080 1080">
  <!-- Generator: Adobe Illustrator 29.2.1, SVG Export Plug-In . SVG Version: 2.1.0 Build 116)  -->
  <defs>
    <style>
      .st0 {
        fill: none;
        stroke: #0b91ff;
        stroke-miterlimit: 10;
        stroke-width: 31px;
      }
    </style>
  </defs>
  <g>
    <path class="st0" d="M849.28,317.65c0,13.81,3.69,26.76,10.13,37.91l-253.75,146.5c-13.12-22.64-37.61-37.87-65.65-37.87s-52.55,15.23-65.65,37.89l-253.77-146.52c6.44-11.15,10.13-24.1,10.13-37.91s-3.69-26.76-10.15-37.91l253.77-146.5c13.12,22.66,37.61,37.91,65.67,37.91s52.55-15.25,65.67-37.91l253.75,146.5c-6.46,11.15-10.15,24.1-10.15,37.91Z"/>
    <path class="st0" d="M925.08,393.47v290.34c-41.86,0-75.8,33.94-75.8,75.82,0,14.64,4.16,28.32,11.34,39.9l-254.96,147.19c-13.12-22.64-37.61-37.87-65.65-37.87v-293.04c41.86,0,75.8-33.94,75.8-75.82,0-13.82-3.69-26.78-10.15-37.93l253.75-146.5c13.12,22.66,37.61,37.91,65.67,37.91Z"/>
    <path class="st0" d="M540.01,615.81v293.04c-28.06,0-52.55,15.23-65.65,37.89l-254.98-147.2c7.18-11.58,11.34-25.25,11.34-39.9,0-41.88-33.94-75.82-75.8-75.82v-290.34c28.06,0,52.55-15.25,65.67-37.91l253.77,146.52c-6.46,11.15-10.15,24.1-10.15,37.91,0,41.88,33.94,75.82,75.8,75.82Z"/>
  </g>
  <path class="st0" d="M615.81,95.33c0,13.82-3.69,26.76-10.13,37.91-13.12,22.66-37.61,37.91-65.67,37.91s-52.55-15.25-65.67-37.91c-6.44-11.15-10.13-24.09-10.13-37.91,0-41.86,33.94-75.8,75.8-75.8s75.8,33.94,75.8,75.8Z"/>
  <path class="st0" d="M615.81,539.99c0,41.88-33.94,75.82-75.8,75.82s-75.8-33.94-75.8-75.82c0-13.81,3.69-26.76,10.15-37.91,13.1-22.66,37.59-37.89,65.65-37.89s52.53,15.23,65.65,37.87c6.46,11.15,10.15,24.1,10.15,37.93Z"/>
  <path class="st0" d="M1000.88,317.65c0,41.88-33.94,75.82-75.8,75.82-28.06,0-52.55-15.25-65.67-37.91-6.44-11.15-10.13-24.1-10.13-37.91s3.69-26.76,10.15-37.91c13.1-22.66,37.59-37.89,65.65-37.89,41.86,0,75.8,33.94,75.8,75.8Z"/>
  <path class="st0" d="M230.72,317.65c0,13.81-3.69,26.76-10.13,37.91-13.12,22.66-37.61,37.91-65.67,37.91-41.86,0-75.8-33.94-75.8-75.82s33.94-75.8,75.8-75.8c28.06,0,52.55,15.23,65.65,37.89,6.46,11.15,10.15,24.1,10.15,37.91Z"/>
  <path class="st0" d="M1000.88,759.64c0,41.86-33.94,75.8-75.8,75.8-27.22,0-51.1-14.34-64.46-35.91-7.18-11.58-11.34-25.25-11.34-39.9,0-41.88,33.94-75.82,75.8-75.82s75.8,33.94,75.8,75.82Z"/>
  <path class="st0" d="M230.72,759.64c0,14.64-4.16,28.32-11.34,39.9-13.36,21.56-37.24,35.91-64.46,35.91-41.86,0-75.8-33.94-75.8-75.8s33.94-75.82,75.8-75.82,75.8,33.94,75.8,75.82Z"/>
  <path class="st0" d="M615.81,984.65c0,41.88-33.94,75.82-75.8,75.82s-75.8-33.94-75.8-75.82c0-13.81,3.69-26.76,10.15-37.91,13.1-22.66,37.59-37.89,65.65-37.89s52.53,15.23,65.65,37.87c6.46,11.15,10.15,24.1,10.15,37.93Z"/>
</svg>