<?xml version="1.0" encoding="UTF-8"?>
<svg id="Layer_1" xmlns="http://www.w3.org/2000/svg" version="1.1" viewBox="0 0 1080 1080">
  <!-- Generator: Adobe Illustrator 29.2.1, SVG Export Plug-In . SVG Version: 2.1.0 Build 116)  -->
  <defs>
    <style>
      .st0 {
        fill: none;
        stroke: #c61ac6;
        stroke-linecap: round;
        stroke-linejoin: bevel;
        stroke-width: 31px;
      }

      .st1 {
        fill: #fff;
      }
    </style>
  </defs>
  <g>
    <path class="st0" d="M1000.04,539.99c0,44.7-6.37,87.91-18.27,128.77h-270.92c-22.89,128.21-79.25,240.36-156.85,321.02,3.15,3.28,6.34,6.5,9.56,9.66-6.53.34-13.1.53-19.7.57-1.29.02-2.57.03-3.86.03-209.37,0-386.08-139.87-441.77-331.28-11.9-40.86-18.27-84.07-18.27-128.77,0-49.05,7.68-96.31,21.9-140.63,59.42-185.29,233.12-319.41,438.14-319.41,1.29,0,2.57.01,3.86.03,6.6.04,13.17.23,19.7.57,194.69,9.82,357.46,140.66,414.58,318.81,14.22,44.32,21.9,91.58,21.9,140.63Z"/>
    <polyline class="st0" points="101.86 399.37 399.37 399.37 708.63 399.37 978.14 399.37"/>
    <polyline class="st0" points="981.77 668.77 710.85 668.77 397.15 668.77 98.23 668.77"/>
    <path class="st0" d="M1000.04,539.99c0,44.7-6.37,87.91-18.27,128.77h-270.92c-22.89,128.21-79.25,240.36-156.85,321.02-77.6-80.66-133.96-192.81-156.85-321.02-7.41-41.42-11.31-84.52-11.31-128.77,0-48.49,4.69-95.6,13.53-140.63,24.18-123.26,79.43-230.99,154.63-309.15,3.15-3.28,6.34-6.5,9.56-9.66,194.69,9.82,357.46,140.66,414.58,318.81,14.22,44.32,21.9,91.58,21.9,140.63Z"/>
    <path class="st0" d="M722.16,539.99c0,44.25-3.9,87.35-11.31,128.77-22.89,128.21-79.25,240.36-156.85,321.02-3.34,3.48-6.72,6.89-10.14,10.23-1.29.02-2.57.03-3.86.03-209.37,0-386.08-139.87-441.77-331.28-11.9-40.86-18.27-84.07-18.27-128.77,0-49.05,7.68-96.31,21.9-140.63,59.42-185.29,233.12-319.41,438.14-319.41,1.29,0,2.57.01,3.86.03,3.42,3.34,6.8,6.75,10.14,10.23,75.2,78.16,130.45,185.89,154.63,309.15,8.84,45.03,13.53,92.14,13.53,140.63Z"/>
  </g>
  <path class="st1" d="M625.36,632.15c5.98-.68,11.42,1.7,16.9,3.47,92.54,45.34,188.98,83.07,281.62,128.09,25.5,12.39,51.13,20.04,30.4,54.64-29.96,20.98-71.83,32.41-101.6,52.04-21.82,14.39-44.05,80.88-60.04,106.43-10.81,17.28-27.13,22.29-44.16,9.32l-144.36-312.37c-9.59-16.64,2.58-39.51,21.24-41.63Z"/>
</svg>