<?xml version="1.0" encoding="UTF-8"?>
<svg id="Layer_1" xmlns="http://www.w3.org/2000/svg" version="1.1" viewBox="0 0 1080 1080">
  <!-- Generator: Adobe Illustrator 29.2.1, SVG Export Plug-In . SVG Version: 2.1.0 Build 116)  -->
  <defs>
    <style>
      .st0 {
        fill: #ff9700;
      }
    </style>
  </defs>
  <path class="st0" d="M592.09,832.68c1.69,47.15,27.15,92.44,67.39,117.08,8.62,5.28,28.91,10.99,31.09,20.43,3.01,13.03-4.14,20.85-16.98,21.3l-342.74-1.66c-29.48-24.31,13.55-33.3,30.24-44.95,35.87-25.02,56.96-69.02,59.91-112.19H110.82c-27.53,0-63.03-41.43-62.84-69.07l-.09-523.58c3.21-40.78,34.66-70.5,75.23-73.17l729.66.03c35.17-21.59,74.85-103.14,124.65-70.96,6.47,4.18,39.17,37.24,44.46,44.17,36.47,47.76-34.53,83.52-56.68,116.54l-.08,504.89c.51,28.2-34.35,71.14-62.83,71.14h-310.2ZM946,122.02l-355.93,355.12,51.51,51.65,5.2-1.03,350.22-350.61c5.59-6.95,2.79-14.07-1.87-20.6-2.58-3.62-30.38-31.12-33.32-32.63-4.77-2.46-10.52-3.51-15.8-1.9ZM820.88,199.92H112.88c-15.94,0-36.41,30.41-34.08,46.3,1.9,174.23-3.46,349.24,2.72,523.01,4.93,15.49,16.97,27.11,32.82,31.08l777.66,1.46c17.48-3.21,32.39-12.44,38.24-29.78.85-2.51,4.01-15.06,4.01-16.6v-466.84l-6.2,3.08-274.21,274.04c-3.57,2.49-7.67,3.56-11.81,4.68-16.89,4.57-74.89,16.31-90.5,16.38-11.72.06-17.51-7.64-17.21-18.79.3-11,16.43-94.56,20.66-101.13l265.9-266.9ZM610.64,544.11c-9.42-9.54-18.28-21.61-28.86-29.87-2.21-1.73-2.52-4.63-5.19-1.06l-7.17,37.12,41.22-6.19ZM616.83,958.41c-31.67-33.37-53.34-75.77-55.93-122.35l-1.65-2.48h-105.39c-5.36,33.42-14.23,66.21-33.22,94.56l-26.41,30.27h222.6Z"/>
  <path class="st0" d="M123.62,328.15c9.15-2.05,36.47-1.14,46.95-.41,83.03,5.74,144.36,68.46,149.54,151.38,3.1,49.63-17.4,126.12,43.84,147.84,38.06,13.5,91.1,3.65,108.13-36.92,6.17-14.71,2.46-43.95,22.1-43.96,24.2-.02,13.85,38.26,8.81,52.21-25.37,70.22-126.02,86.37-179.82,40.6-80.04-68.1,15.1-194.48-94.01-260.51-40.46-24.48-58.66-13.02-99.8-17.69-24.5-2.78-24.54-28.33-5.75-32.54Z"/>
</svg>